<svg width="113" height="119" viewBox="0 0 113 119" fill="none" xmlns="http://www.w3.org/2000/svg">
<circle cx="56.2867" cy="62.4921" r="43" transform="rotate(22 56.2867 62.4921)" fill="#1B1F3C"/>
<path d="M44.5598 70.0168C45.4615 67.7848 46.4239 65.846 47.447 64.2002C48.506 62.5391 49.7054 61.1586 51.0451 60.0585C52.4105 58.9689 53.9907 58.1599 55.7857 57.6318C57.339 57.185 58.7023 56.6914 59.8756 56.1508C61.085 55.5949 62.0968 54.9742 62.911 54.2885C63.7252 53.6028 64.3085 52.8238 64.6609 51.9516C65.3761 50.1814 65.5172 48.7612 65.0842 47.691C64.6511 46.6208 63.6906 45.7851 62.2027 45.1839C61.0482 44.7175 59.8073 44.7235 58.4801 45.2018C57.1784 45.6906 56.0874 46.9508 55.2068 48.9824L41.2764 43.3542C42.9551 39.3471 45.1129 36.4439 47.7498 34.6444C50.4124 32.8553 53.3699 31.9613 56.6223 31.9623C59.8747 31.9633 63.2326 32.6634 66.6959 34.0627C72.4169 36.3741 76.383 39.4835 78.5942 43.391C80.8415 47.2832 80.9338 51.7819 78.8712 56.8872C77.9798 59.0934 76.7946 60.808 75.3158 62.0309C73.8369 63.2538 72.1173 64.26 70.1569 65.0496C68.2326 65.824 66.0897 66.6592 63.7282 67.5553C61.722 68.2368 60.2084 69.1025 59.1874 70.1523C58.1664 71.202 57.2029 72.7376 56.2967 74.7588L44.5598 70.0168ZM38.2563 80.8543C39.0855 78.8019 40.4803 77.3809 42.4406 76.5913C44.401 75.8017 46.5099 75.863 48.7675 76.7751C51.0508 77.6976 52.6104 79.1186 53.4464 81.038C54.3081 82.9677 54.3243 84.9588 53.4951 87.0111C52.6762 89.0379 51.2815 90.4588 49.3107 91.2741C47.376 92.0741 45.2671 92.0128 42.9838 91.0903C40.7262 90.1782 39.1666 88.7572 38.305 86.8275C37.4537 84.8721 37.4375 82.881 38.2563 80.8543Z" fill="white"/>
</svg>
